<svg width="2000" height="376" xmlns="http://www.w3.org/2000/svg">

 <g>
  <title>background</title>
  <rect fill="none" id="canvas_background" height="378" width="2002" y="-1" x="-1"/>
 </g>
 <g>
  <title>Layer 1</title>
  <path stroke="null" transform="translate(-1,0) translate(0,0.000001817941665649414) scale(1.2049779891967773,1) translate(0,-0.000001817941665649414) translate(0,0.000001817941665649414) scale(0.9970717430114746,1) translate(0,-0.000001817941665649414) " id="svg_1" fill="#2F4858" d="m0,51.6641l0,7.6539l0,316.682l1373.99993,0l0,-316.6819l0,-7.654l0,-34.2141c-3.09804,-0.3376 -6.42742,-0.6753 -9.75681,0c-5.47186,1.1582 -11.14489,1.8215 -16.8481,2.4891c-8.42908,0.9869 -16.93862,1.9834 -25.03577,4.6015c-6.18602,1.857 -13.80035,1.0129 -20.70053,-0.3377c-3.09804,-0.6753 -6.42742,-1.0129 -9.75681,-0.6753c-4.23466,0.5459 -8.1575,-0.6734 -12.00993,-1.8742c-0.91533,-0.2846 -1.83066,-0.5682 -2.74599,-0.8269c-6.41736,-1.6883 -12.61344,-1.6883 -19.27221,-1.1818c-2.6957,0.1126 -5.39139,0.075 -8.08709,0.0375c-1.34785,-0.0187 -2.6957,-0.0375 -4.0536,-0.0375c-3.32938,0 -6.41736,0.1688 -8.32849,3.0388c-1.42832,2.1947 -4.5163,1.8571 -7.37293,1.3506l-0.73428,-0.1458c-4.01337,-0.7934 -7.85574,-1.5522 -12.11051,-1.7113c-10.23962,-0.6752 -18.79946,2.0259 -27.36935,5.2336c-2.85663,1.1817 -5.95467,2.3635 -9.28406,1.1817c-4.59676,-1.7485 -9.20359,-1.1629 -13.80035,-0.5773c-2.06201,0.2625 -4.12401,0.5251 -6.18602,0.5773c-7.8155,0.163 -15.40972,0.9558 -23.20511,1.7702l-0.8248,0.0869c-3.57079,0.3376 -7.62439,-0.5065 -10.71237,-1.5195c-6.23631,-2.0638 -12.65367,-1.5531 -18.93022,-1.0532c-0.91533,0.0726 -1.8206,0.1449 -2.72587,0.2091c-11.65788,0.8441 -22.843,-0.1688 -33.07256,-3.8829c-1.98154,-0.7021 -4.02343,-0.8111 -6.06531,-0.9199c-1.89101,-0.1005 -3.77196,-0.2009 -5.60262,-0.7683c-8.80124,-2.7012 -17.60249,-4.8959 -26.64514,-6.9218c-3.0578,-0.7737 -6.10555,0.013 -9.16335,0.7996c-0.28164,0.0715 -0.55322,0.143 -0.83486,0.2134c-1.93124,0.5065 -3.79208,1.1497 -5.65291,1.7929c-4.3453,1.5008 -8.6906,3.0016 -13.85869,2.7653c-2.37986,-0.0844 -4.69936,-0.211 -7.01987,-0.3377c-2.32051,-0.1266 -4.64002,-0.2532 -7.01987,-0.3376c-0.37016,-0.0262 -0.74031,-0.0606 -1.10845,-0.0949c-2.00568,-0.1865 -3.9842,-0.3705 -5.79273,0.7702c-0.47577,0.1688 -1.42731,0.3376 -1.90409,0.1688c-5.38133,-1.5909 -11.13885,-1.7159 -16.85916,-1.8402c-3.38471,-0.0735 -6.75734,-0.1467 -10.0304,-0.5233c-0.3088,0 -0.64274,-0.0178 -0.98574,-0.036c-0.71315,-0.038 -1.46453,-0.078 -2.10727,0.036c-12.13666,2.87 -23.08239,1.0129 -32.60182,-4.5582c-2.34666,-1.3148 -5.07958,-2.129 -7.7974,-2.9388c-2.51565,-0.7499 -5.02023,-1.496 -7.19389,-2.63237c-0.09153,-0.03251 -0.19212,-0.07128 -0.29673,-0.11148c-0.43654,-0.1686 -0.93846,-0.36249 -1.13058,-0.22617c-5.62777,1.85352 -9.89662,-0.02574 -14.09808,-1.87514c-0.7735,-0.34045 -1.545,-0.67989 -2.32152,-0.99485c-8.80527,-3.37645 -18.0853,-4.38939 -26.65218,-1.35058c-5.47287,1.85705 -9.28104,1.68822 -13.80136,-0.16883c-4.32217,-1.72479 -9.10501,-2.0899 -13.86774,-2.45359c-3.62913,-0.27707 -7.2472,-0.55332 -10.64297,-1.42933c-2.46234,-0.67196 -4.47304,0.26082 -6.27051,1.09507c-0.46068,0.21373 -0.90728,0.421 -1.34382,0.59315c-6.90118,3.20764 -14.7539,4.38939 -22.84501,4.72704c-2.61724,0 -4.75871,0.67529 -6.42541,2.02588c-4.52132,3.3765 -9.7558,4.3894 -15.46705,2.5323c-0.36714,-0.1042 -0.73327,-0.2104 -1.09739,-0.3163c-4.3624,-1.26662 -8.56889,-2.48802 -13.18074,0.3163c-1.32773,0.9424 -3.48026,0.2775 -5.11478,-0.2275c-0.12271,-0.0379 -0.24241,-0.0748 -0.35808,-0.1101c-6.42541,-1.68824 -13.0882,-2.36353 -19.751,-1.85706c-2.58103,0.20345 -4.98905,0.89729 -7.43328,1.60136c-1.61138,0.4643 -3.23886,0.9331 -4.94077,1.2686c-3.3314,0.6753 -6.18702,0.6753 -9.75681,-0.3376c-13.56397,-4.22059 -27.60372,-7.42823 -42.595,-7.76588c-4.04555,-0.16882 -7.61534,-0.50646 -11.42251,-1.5194c-5.04839,-1.49241 -9.91171,-0.34621 -14.58794,0.75616c-0.61357,0.14464 -1.22413,0.28853 -1.83166,0.4256c-0.55523,0.11255 -1.08331,0.30012 -1.61239,0.4877c-1.05816,0.37516 -2.11532,0.75033 -3.38471,0.52523c-6.36506,-0.9764 -12.48167,0.07664 -18.52989,1.11782c-2.31749,0.39899 -4.62493,0.79625 -6.93236,1.07688c-1.42731,0.16882 -2.61724,0.16882 -4.04555,0.16882c-3.56878,-0.16882 -6.90018,0.16883 -10.46996,1.35059c-6.21318,2.07438 -12.8478,3.15308 -19.47238,4.23018c-2.00165,0.3255 -4.0023,0.6508 -5.98988,1.0033c-3.13928,0.4689 -5.47588,-0.039 -7.88491,-0.5628c-1.06118,-0.2305 -2.13543,-0.4642 -3.29921,-0.6189c-5.03331,-0.5714 -10.06762,0.1868 -15.10193,0.945c-0.91432,0.1378 -1.82965,0.2757 -2.74498,0.4055c-0.70309,0.1246 -1.40518,0.2543 -2.10828,0.3841c-5.01118,0.9254 -10.04549,1.8549 -15.26287,0.9665c-1.18993,-0.1688 -2.61824,-0.1688 -3.56978,0.1688c-9.51842,3.883 -19.98939,4.3894 -30.69773,4.7271c-1.5279,0 -2.76611,0.7418 -4.08679,1.5331c-1.35187,0.8103 -2.79125,1.6725 -4.71747,1.8433c-0.58742,0 -1.17484,0.1143 -1.74516,0.2253c-0.81676,0.1589 -1.59931,0.3112 -2.30039,0.1124c-3.49032,-0.9728 -7.11141,-0.9264 -10.72645,-0.8801c-3.28513,0.0421 -6.56523,0.0841 -9.7377,-0.6393c-7.14359,-1.5767 -14.3928,-1.3503 -21.6068,-1.1251c-3.59996,0.1124 -7.19187,0.2245 -10.75663,0.1121c-0.55523,-0.0562 -1.08431,-0.0562 -1.59529,-0.0562c-1.02195,0 -1.9745,0 -2.92604,-0.4502c-3.80717,-1.6883 -7.37695,-2.3636 -10.47097,0.8441c-0.95154,1.0129 -3.09301,1.5194 -4.75871,0.8441c-3.56978,-1.1818 -7.13856,-0.8441 -10.70835,-0.5065c-0.22934,0 -0.48382,0.035 -0.74735,0.0712c-0.55423,0.0762 -1.14869,0.1578 -1.63251,-0.0712c-4.64002,-2.4143 -10.08572,-2.8312 -15.48516,-3.2446c-2.90693,-0.2226 -5.80077,-0.4442 -8.54877,-0.9759c-9.04265,-1.8571 -18.0853,-1.8571 -27.36634,-1.1818c-2.50257,0.1614 -5.00514,-0.1788 -7.53386,-0.5225c-2.76108,-0.3753 -5.55233,-0.7548 -8.40896,-0.4904c-3.92686,0.3376 -7.91307,0.5486 -11.89828,0.7597c-3.98621,0.211 -7.97242,0.422 -11.89828,0.7597c-3.3314,0.1688 -5.94964,0.1688 -9.04265,-1.013c-4.28294,-1.857 -9.04265,-2.7011 -14.03974,-2.0259c-2.14147,0.3377 -4.04555,0.6753 -5.47287,2.0259c-3.09401,2.7012 -7.13957,3.5453 -11.66089,3.3765c-2.73593,-0.0844 -5.47287,-0.2533 -8.2098,-0.4221c-2.73593,-0.1688 -5.47287,-0.3376 -8.2098,-0.422c-2.14147,0 -4.04455,-0.3377 -5.71125,-1.3506c-1.92622,-1.2153 -4.23868,-1.0637 -6.76338,-0.8981c-0.28164,0.0185 -0.56529,0.0371 -0.85095,0.054c-7.85272,0.5064 -14.7539,1.3505 -19.03684,6.9217c-0.71416,1.0129 -4.52132,1.5194 -6.66279,1.3506c-6.08342,-0.6347 -12.03206,-0.1241 -17.9475,0.3836c-1.95237,0.1676 -3.90071,0.3348 -5.84906,0.4605c-1.56411,0.0965 -3.12721,0.1378 -4.69131,0.1791c-3.90976,0.1034 -7.81852,0.2068 -11.72829,1.1715c-1.90409,0.5064 -4.52132,0.5064 -6.18702,-0.1689c-7.92615,-3.3469 -15.85129,-1.9163 -23.65875,-0.5072c-2.03787,0.3678 -4.06768,0.7342 -6.08644,1.0137c-7.37695,1.0129 -14.03974,1.0129 -20.46516,-1.5194c-4.28324,-1.6882 -8.32859,-2.3635 -13.0879,-1.5194c-0.44982,0.0776 -0.90085,0.1557 -1.35298,0.2339c-8.3987,1.4536 -17.18204,2.9737 -25.53678,2.9737c-5.33426,0 -9.7901,1.1685 -14.26254,2.3413c-2.1117,0.5538 -4.22701,1.1085 -6.4403,1.5417c-6.18702,1.1817 -10.94633,-0.3377 -15.46766,-2.7012c-2.61754,-1.3506 -5.23528,-2.0259 -8.56678,-2.3635c-4.31281,-0.3531 -8.39442,-1.2804 -12.48656,-2.21c-1.77827,-0.404 -3.55854,-0.8085 -5.36065,-1.1665l0,29.1495z" clip-rule="evenodd" fill-rule="evenodd"/>
 </g>
</svg>