<svg width="1366" height="35" viewBox="0 0 1366 35" fill="none" xmlns="http://www.w3.org/2000/svg">
<path d="M1366 0V21.6714C1360.09 20.9755 1354.41 19.9814 1348.26 19.6832C1344.94 19.4844 1342.34 19.0867 1339.74 18.2915C1335.24 16.8997 1330.51 16.005 1324.36 16.7009C1317.5 17.4962 1311.59 18.9873 1303.78 18.9873C1295.03 18.9873 1285.8 19.9814 1277.05 20.8761C1272.32 21.3732 1268.29 20.9755 1264.03 19.9814C1257.65 18.4903 1251.02 18.4903 1243.69 19.0867C1233.99 19.882 1224.05 21.8702 1214.12 19.385C1212.46 18.9873 1209.86 18.9873 1207.97 19.2856C1202.52 20.0808 1197.08 19.882 1191.64 20.0809C1183.84 20.3791 1176.03 21.075 1167.98 20.5779C1165.86 20.4785 1162.07 20.7767 1161.36 21.3732C1157.1 24.6537 1150.24 25.1508 1142.43 25.449C1139.59 25.5484 1136.99 25.7472 1134.86 24.9519C1133.21 24.3555 1131.31 24.1567 1129.19 24.1567C1123.74 24.0573 1118.3 23.759 1112.86 23.6596C1108.37 23.5602 1104.34 24.0573 1101.27 25.6478C1099.85 26.4431 1097.96 26.6419 1095.83 26.8407C1090.86 27.2384 1086.13 26.7413 1081.87 25.6478C1078.79 24.9519 1076.19 24.9519 1072.88 25.0514C1065.07 25.449 1057.03 25.5484 1049.22 25.946C1043.78 26.2443 1038.58 25.1508 1033.37 25.3496C1024.15 25.7472 1015.16 25.7472 1006.17 24.6537C998.358 23.759 989.368 24.3555 982.271 22.1685C981.561 21.9696 980.615 22.1685 979.905 22.1685C976.356 22.3673 972.808 22.5661 969.259 21.8702C967.603 21.4726 965.474 21.7708 964.527 22.3673C961.452 24.2561 957.903 23.8584 954.118 22.8643C952.699 22.4667 951.279 22.6655 949.623 22.5661C938.977 22.3673 928.094 23.3614 917.448 21.9696C910.824 21.075 903.727 22.1685 897.103 21.075C895.92 20.8761 894.5 21.2738 893.081 21.2738C889.296 21.4726 887.403 23.262 884.328 23.262C873.682 23.4608 863.272 23.759 853.809 26.0455C852.863 26.2443 851.443 26.2443 850.26 26.1449C844.346 25.5484 838.668 26.3437 832.99 26.9401C827.076 27.4372 821.161 28.1331 815.247 27.7354C811.462 27.4372 808.623 26.6419 804.128 27.0396C795.611 27.9343 786.858 28.5307 778.814 30.1213C775.265 30.8171 771.953 31.016 768.405 30.9166C766.985 30.9166 765.802 30.9166 764.383 31.016C756.102 31.6124 747.822 33.1036 739.069 32.3083C737.176 32.1095 735.757 32.7059 734.101 32.9048C728.896 33.6006 723.455 34.5947 717.777 33.6006C713.992 33.0042 710.443 32.8054 706.421 32.7059C691.517 32.5071 677.559 30.6183 664.074 28.1331C660.525 27.5366 657.686 27.5366 654.374 27.9343C650.116 28.4313 646.33 29.4254 642.072 29.6242C635.448 29.9225 628.824 29.5248 622.436 28.5307C620.78 28.2325 618.414 27.7354 616.995 28.3319C612.027 30.1213 607.532 29.1272 602.8 28.3319C597.122 27.2384 591.918 27.8348 587.423 29.823C585.767 30.6183 583.637 31.016 581.035 31.016C572.991 31.2148 565.184 31.9107 558.324 33.7994C556.194 34.2965 553.829 35.2906 550.753 34.7936C542.946 33.6006 533.956 34.2965 526.385 32.5071C521.89 31.4136 518.105 31.3142 512.664 32.4077C504.147 34.1971 494.921 33.6006 486.167 31.6124C481.199 30.4195 476.468 28.6301 469.843 29.9225C469.607 30.0219 468.897 29.823 468.424 29.7236C463.929 28.3319 458.015 27.9343 453.52 26.4431C444.056 23.1626 433.174 22.0691 421.108 23.759C420.162 23.8584 418.979 23.759 418.033 23.759C409.279 23.1626 399.816 23.8584 391.3 22.3673C390.826 22.2679 389.88 22.3673 389.407 22.4667C387.278 23.262 384.912 22.9637 382.546 22.8643C377.815 22.7649 373.32 22.5661 368.588 22.4667C361.254 22.2679 355.576 24.1567 349.189 25.1508C345.877 25.6478 342.565 26.2443 339.252 25.7472C330.263 24.5543 321.509 23.262 312.756 21.6714C308.971 20.9755 304.949 21.4726 301.163 20.6773C290.991 18.4903 279.871 17.8938 268.279 18.3909C261.182 18.6891 253.848 19.2856 246.751 17.8938C243.675 17.2974 239.653 16.8003 236.105 16.9991C228.061 17.4962 220.254 17.9932 212.21 18.0926C205.586 18.1921 198.962 19.5838 192.338 18.0926C189.026 17.3968 185.95 18.0926 183.111 18.7885C174.594 20.6773 166.078 22.2679 155.905 21.8702C151.41 21.7708 147.388 21.2738 143.13 20.7767C140.291 20.4785 137.215 20.2797 135.796 21.572C133.903 23.262 130.827 23.3614 127.515 23.3614C123.494 23.3614 119.472 23.262 115.45 23.3614C108.826 23.6596 102.675 23.6596 96.2871 22.6655C91.5556 21.8702 86.824 20.6773 81.6193 21.075C78.3072 21.2738 74.9951 21.0749 71.9196 20.6773C65.0589 19.882 57.4884 19.385 51.3374 20.4785C37.8524 23.0632 23.1846 22.9637 9.69969 24.6537C6.3876 25.0514 3.07551 24.8525 0 24.6537V0H1366Z" fill="white"/>
</svg>
