<svg width="14" height="9" viewBox="0 0 14 9" fill="none" xmlns="http://www.w3.org/2000/svg">
<path d="M7.54628 7.78784L13.7763 1.72407C13.9206 1.58382 14 1.3966 14 1.19698C14 0.997353 13.9206 0.810135 13.7763 0.669887L13.3176 0.223333C13.0188 -0.0672429 12.533 -0.0672429 12.2345 0.223333L7.0029 5.31523L1.76547 0.217683C1.62126 0.0774353 1.42901 8.58966e-09 1.22402 0C1.0188 -8.5992e-09 0.826562 0.0774352 0.682238 0.217683L0.223656 0.664237C0.0794461 0.804595 9.10254e-09 0.991703 0 1.19133C-9.10254e-09 1.39095 0.0794461 1.57817 0.223656 1.71842L6.45941 7.78784C6.60408 7.92842 6.79723 8.00563 7.00256 8.00519C7.20869 8.00563 7.40173 7.92842 7.54628 7.78784Z" fill="#2F4858"/>
</svg>
